<?xml version="1.0" encoding="UTF-8"?>
<svg xmlns="http://www.w3.org/2000/svg" id="Layer_1" data-name="Layer 1" width="493" height="493" viewBox="0 0 493 493">
  <path d="M246.5,0C110.36,0,0,110.36,0,246.5s110.36,246.5,246.5,246.5,246.5-110.36,246.5-246.5S382.64,0,246.5,0Zm48.92,306.36c-3.21,5.52-7.22,10.74-11.62,15.38-15.57,16.42-31.38,32.61-47.29,48.71-5.74,5.81-11.48,11.84-18.1,16.52-49.78,35.22-122.06,8.81-132.64-55.69-.34-2.1-.75-4.19-1.12-6.28v-14.75c1.13-5.6,1.95-11.28,3.46-16.78,3.77-13.68,10.75-25.62,20.65-35.78,16.29-16.72,32.68-33.36,49.03-50.03,.42-.42,.88-.8,2-1.82-.36,3.18-.66,5.59-.91,8.01-1.65,15.65-.54,31.09,3.92,46.2,.93,3.15,.45,5.36-1.88,7.7-7.88,7.9-15.78,15.81-23.33,24.03-19.36,21.08-11.67,55.12,14.89,65.38,15.45,5.97,30.41,3.88,42.28-7.68,19.73-19.21,38.62-39.28,57.61-59.23,5.99-6.29,10.23-13.81,11.13-22.78,1.7-16.94-5.05-29.85-18.86-39.32-4.56-3.13-4.79-3.68-2.14-8.64,5.2-9.73,12.51-17.66,20.94-24.65,2.23-1.84,4.4-1.83,6.7-.16,19.29,14.02,31.37,32.59,35.06,56.26,3.04,19.52,.23,38.22-9.78,55.42Zm79.47-72.68c-16.15,16.86-32.63,33.4-48.97,50.07-.55,.56-1.18,1.04-2.33,2.05,.54-4.32,1.06-7.85,1.4-11.39,1.44-14.95,.1-29.64-4.44-43.97-.84-2.66-.02-4.47,1.78-6.31,7.75-7.89,15.53-15.75,23.12-23.79,21.63-22.93,10.66-60.51-19.95-67.91-14.12-3.41-27.1-.2-37.41,10.12-18.9,18.89-37.41,38.17-55.92,57.44-7.66,7.98-12.63,17.32-12.37,28.84,.35,15.09,7,26.64,19.46,34.93,4.12,2.74,4.37,3.54,1.64,7.82-5.94,9.29-13.24,17.42-21.03,25.16-2.03,2.01-3.88,2.12-6.22,.45-21.37-15.27-33.12-36.16-35.59-62.11-2.6-27.35,6.33-50.65,25.72-70.12,17.27-17.34,33.81-35.43,51.57-52.25,24.52-23.23,53.85-29.93,85.81-19.33,32.03,10.63,51.27,33.71,56.84,67.05,4.69,28.04-3.42,52.71-23.11,73.26Z"></path>
</svg>
